<?xml version="1.0" encoding="utf-8" standalone="no"?>
<!DOCTYPE svg PUBLIC "-//W3C//DTD SVG 1.1//EN"
  "http://www.w3.org/Graphics/SVG/1.1/DTD/svg11.dtd">
<svg xmlns:xlink="http://www.w3.org/1999/xlink" width="711.9825pt" height="293.010625pt" viewBox="0 0 711.9825 293.010625" xmlns="http://www.w3.org/2000/svg" version="1.1">
 <metadata>
  <rdf:RDF xmlns:dc="http://purl.org/dc/elements/1.1/" xmlns:cc="http://creativecommons.org/ns#" xmlns:rdf="http://www.w3.org/1999/02/22-rdf-syntax-ns#">
   <cc:Work>
    <dc:type rdf:resource="http://purl.org/dc/dcmitype/StillImage"/>
    <dc:date>2026-10-04T12:10:55.548935</dc:date>
    <dc:format>image/svg+xml</dc:format>
    <dc:creator>
     <cc:Agent>
      <dc:title>Matplotlib v3.10.5, https://matplotlib.org/</dc:title>
     </cc:Agent>
    </dc:creator>
   </cc:Work>
  </rdf:RDF>
 </metadata>
 <defs>
  <style type="text/css">*{stroke-linejoin: round; stroke-linecap: butt}</style>
 </defs>
 <g id="figure_1">
  <g id="patch_1">
   <path d="M 0 293.010625 
L 711.9825 293.010625 
L 711.9825 0 
L 0 0 
z
" style="fill: #ffffff"/>
  </g>
  <g id="axes_1">
   <g id="patch_2">
    <path d="M 47.2625 256.166875 
L 348.8775 256.166875 
L 348.8775 20.446875 
L 47.2625 20.446875 
z
" style="fill: #ffffff"/>
   </g>
   <g id="patch_3">
    <path d="M 60.972273 150.411596 
L 117.424278 150.411596 
L 117.424278 31.16142 
L 60.972273 31.16142 
z
" clip-path="url(#p3a5b209ea3)" style="fill: #75a025"/>
   </g>
   <g id="patch_4">
    <path d="M 222.263717 150.411596 
L 278.715722 150.411596 
L 278.715722 40.020128 
L 222.263717 40.020128 
z
" clip-path="url(#p3a5b209ea3)" style="fill: #75a025"/>
   </g>
   <g id="patch_5">
    <path d="M 117.424278 150.411596 
L 173.876283 150.411596 
L 173.876283 245.45233 
L 117.424278 245.45233 
z
" clip-path="url(#p3a5b209ea3)" style="fill: #0279ee"/>
   </g>
   <g id="patch_6">
    <path d="M 278.715722 150.411596 
L 335.167727 150.411596 
L 335.167727 102.601141 
L 278.715722 102.601141 
z
" clip-path="url(#p3a5b209ea3)" style="fill: #0279ee"/>
   </g>
   <g id="matplotlib.axis_1">
    <g id="xtick_1">
     <g id="line2d_1">
      <defs>
       <path id="m6f34febc96" d="M 0 0 
L 0 3.5 
" style="stroke: #000000; stroke-width: 0.8"/>
      </defs>
      <g>
       <use xlink:href="#m6f34febc96" x="117.424278" y="256.166875" style="stroke: #000000; stroke-width: 0.8"/>
      </g>
     </g>
     <g id="text_1">
      <text style="font-size: 10px; font-family: 'Liberation Sans', 'Arimo', 'DejaVu Sans'; text-anchor: middle" x="117.424278" y="270.41375" transform="rotate(-0 117.424278 270.41375)">within Alight</text>
     </g>
    </g>
    <g id="xtick_2">
     <g id="line2d_2">
      <g>
       <use xlink:href="#m6f34febc96" x="278.715722" y="256.166875" style="stroke: #000000; stroke-width: 0.8"/>
      </g>
     </g>
     <g id="text_2">
      <text style="font-size: 10px; font-family: 'Liberation Sans', 'Arimo', 'DejaVu Sans'; text-anchor: middle" x="278.715722" y="270.41375" transform="rotate(-0 278.715722 270.41375)">within dark</text>
     </g>
    </g>
   </g>
   <g id="matplotlib.axis_2">
    <g id="ytick_1">
     <g id="line2d_3">
      <defs>
       <path id="m432768c32a" d="M 0 0 
L -3.5 0 
" style="stroke: #000000; stroke-width: 0.8"/>
      </defs>
      <g>
       <use xlink:href="#m432768c32a" x="47.2625" y="241.022273" style="stroke: #000000; stroke-width: 0.8"/>
      </g>
     </g>
     <g id="text_3">
      <text style="font-size: 10px; font-family: 'Liberation Sans', 'Arimo', 'DejaVu Sans'; text-anchor: end" x="40.2625" y="244.64571" transform="rotate(-0 40.2625 244.64571)">−0.3</text>
     </g>
    </g>
    <g id="ytick_2">
     <g id="line2d_4">
      <g>
       <use xlink:href="#m432768c32a" x="47.2625" y="210.818714" style="stroke: #000000; stroke-width: 0.8"/>
      </g>
     </g>
     <g id="text_4">
      <text style="font-size: 10px; font-family: 'Liberation Sans', 'Arimo', 'DejaVu Sans'; text-anchor: end" x="40.2625" y="214.442151" transform="rotate(-0 40.2625 214.442151)">−0.2</text>
     </g>
    </g>
    <g id="ytick_3">
     <g id="line2d_5">
      <g>
       <use xlink:href="#m432768c32a" x="47.2625" y="180.615155" style="stroke: #000000; stroke-width: 0.8"/>
      </g>
     </g>
     <g id="text_5">
      <text style="font-size: 10px; font-family: 'Liberation Sans', 'Arimo', 'DejaVu Sans'; text-anchor: end" x="40.2625" y="184.238592" transform="rotate(-0 40.2625 184.238592)">−0.1</text>
     </g>
    </g>
    <g id="ytick_4">
     <g id="line2d_6">
      <g>
       <use xlink:href="#m432768c32a" x="47.2625" y="150.411596" style="stroke: #000000; stroke-width: 0.8"/>
      </g>
     </g>
     <g id="text_6">
      <text style="font-size: 10px; font-family: 'Liberation Sans', 'Arimo', 'DejaVu Sans'; text-anchor: end" x="40.2625" y="154.035033" transform="rotate(-0 40.2625 154.035033)">0.0</text>
     </g>
    </g>
    <g id="ytick_5">
     <g id="line2d_7">
      <g>
       <use xlink:href="#m432768c32a" x="47.2625" y="120.208037" style="stroke: #000000; stroke-width: 0.8"/>
      </g>
     </g>
     <g id="text_7">
      <text style="font-size: 10px; font-family: 'Liberation Sans', 'Arimo', 'DejaVu Sans'; text-anchor: end" x="40.2625" y="123.831475" transform="rotate(-0 40.2625 123.831475)">0.1</text>
     </g>
    </g>
    <g id="ytick_6">
     <g id="line2d_8">
      <g>
       <use xlink:href="#m432768c32a" x="47.2625" y="90.004478" style="stroke: #000000; stroke-width: 0.8"/>
      </g>
     </g>
     <g id="text_8">
      <text style="font-size: 10px; font-family: 'Liberation Sans', 'Arimo', 'DejaVu Sans'; text-anchor: end" x="40.2625" y="93.627916" transform="rotate(-0 40.2625 93.627916)">0.2</text>
     </g>
    </g>
    <g id="ytick_7">
     <g id="line2d_9">
      <g>
       <use xlink:href="#m432768c32a" x="47.2625" y="59.800919" style="stroke: #000000; stroke-width: 0.8"/>
      </g>
     </g>
     <g id="text_9">
      <text style="font-size: 10px; font-family: 'Liberation Sans', 'Arimo', 'DejaVu Sans'; text-anchor: end" x="40.2625" y="63.424357" transform="rotate(-0 40.2625 63.424357)">0.3</text>
     </g>
    </g>
    <g id="ytick_8">
     <g id="line2d_10">
      <g>
       <use xlink:href="#m432768c32a" x="47.2625" y="29.59736" style="stroke: #000000; stroke-width: 0.8"/>
      </g>
     </g>
     <g id="text_10">
      <text style="font-size: 10px; font-family: 'Liberation Sans', 'Arimo', 'DejaVu Sans'; text-anchor: end" x="40.2625" y="33.220798" transform="rotate(-0 40.2625 33.220798)">0.4</text>
     </g>
    </g>
    <g id="text_11">
     <text style="font-size: 10px; font-family: 'Liberation Sans', 'Arimo', 'DejaVu Sans'; text-anchor: middle" x="14.446875" y="138.306875" transform="rotate(-90 14.446875 138.306875)">Median flight log2FC (module genes)</text>
    </g>
   </g>
   <g id="line2d_11">
    <path d="M 47.2625 150.411596 
L 348.8775 150.411596 
" clip-path="url(#p3a5b209ea3)" style="fill: none; stroke: #000000; stroke-width: 0.8; stroke-linecap: square"/>
   </g>
   <g id="patch_7">
    <path d="M 47.2625 256.166875 
L 47.2625 20.446875 
" style="fill: none; stroke: #000000; stroke-width: 0.8; stroke-linejoin: miter; stroke-linecap: square"/>
   </g>
   <g id="patch_8">
    <path d="M 348.8775 256.166875 
L 348.8775 20.446875 
" style="fill: none; stroke: #000000; stroke-width: 0.8; stroke-linejoin: miter; stroke-linecap: square"/>
   </g>
   <g id="patch_9">
    <path d="M 47.2625 256.166875 
L 348.8775 256.166875 
" style="fill: none; stroke: #000000; stroke-width: 0.8; stroke-linejoin: miter; stroke-linecap: square"/>
   </g>
   <g id="patch_10">
    <path d="M 47.2625 20.446875 
L 348.8775 20.446875 
" style="fill: none; stroke: #000000; stroke-width: 0.8; stroke-linejoin: miter; stroke-linecap: square"/>
   </g>
   <g id="text_12">
    <text style="font-size: 10px; font-family: 'Liberation Sans', 'Arimo', 'DejaVu Sans'; text-anchor: middle" x="198.07" y="14.446875" transform="rotate(-0 198.07 14.446875)">A  Stratified flight effect (3v3 per stratum)</text>
   </g>
   <g id="legend_1">
    <g id="patch_11">
     <path d="M 261.02375 235.849375 
L 277.02375 235.849375 
L 277.02375 230.249375 
L 261.02375 230.249375 
z
" style="fill: #75a025"/>
    </g>
    <g id="text_13">
     <text style="font-size: 8px; font-family: 'Liberation Sans', 'Arimo', 'DejaVu Sans'; text-anchor: start" x="283.42375" y="235.849375" transform="rotate(-0 283.42375 235.849375)">redox module</text>
    </g>
    <g id="patch_12">
     <path d="M 261.02375 247.306875 
L 277.02375 247.306875 
L 277.02375 241.706875 
L 261.02375 241.706875 
z
" style="fill: #0279ee"/>
    </g>
    <g id="text_14">
     <text style="font-size: 8px; font-family: 'Liberation Sans', 'Arimo', 'DejaVu Sans'; text-anchor: start" x="283.42375" y="247.306875" transform="rotate(-0 283.42375 247.306875)">pc down module</text>
    </g>
   </g>
  </g>
  <g id="axes_2">
   <g id="patch_13">
    <path d="M 403.1675 256.166875 
L 704.7825 256.166875 
L 704.7825 20.446875 
L 403.1675 20.446875 
z
" style="fill: #ffffff"/>
   </g>
   <g id="patch_14">
    <path d="M 416.877273 256.166875 
L 420.304716 256.166875 
L 420.304716 256.10685 
L 416.877273 256.10685 
z
" clip-path="url(#p53e4979a36)" style="fill: #ece9e2; stroke: #000000; stroke-width: 0.3; stroke-linejoin: miter"/>
   </g>
   <g id="patch_15">
    <path d="M 420.304716 256.166875 
L 423.732159 256.166875 
L 423.732159 256.166875 
L 420.304716 256.166875 
z
" clip-path="url(#p53e4979a36)" style="fill: #ece9e2; stroke: #000000; stroke-width: 0.3; stroke-linejoin: miter"/>
   </g>
   <g id="patch_16">
    <path d="M 423.732159 256.166875 
L 427.159602 256.166875 
L 427.159602 256.166875 
L 423.732159 256.166875 
z
" clip-path="url(#p53e4979a36)" style="fill: #ece9e2; stroke: #000000; stroke-width: 0.3; stroke-linejoin: miter"/>
   </g>
   <g id="patch_17">
    <path d="M 427.159602 256.166875 
L 430.587045 256.166875 
L 430.587045 256.10685 
L 427.159602 256.10685 
z
" clip-path="url(#p53e4979a36)" style="fill: #ece9e2; stroke: #000000; stroke-width: 0.3; stroke-linejoin: miter"/>
   </g>
   <g id="patch_18">
    <path d="M 430.587045 256.166875 
L 434.014489 256.166875 
L 434.014489 256.166875 
L 430.587045 256.166875 
z
" clip-path="url(#p53e4979a36)" style="fill: #ece9e2; stroke: #000000; stroke-width: 0.3; stroke-linejoin: miter"/>
   </g>
   <g id="patch_19">
    <path d="M 434.014489 256.166875 
L 437.441932 256.166875 
L 437.441932 256.166875 
L 434.014489 256.166875 
z
" clip-path="url(#p53e4979a36)" style="fill: #ece9e2; stroke: #000000; stroke-width: 0.3; stroke-linejoin: miter"/>
   </g>
   <g id="patch_20">
    <path d="M 437.441932 256.166875 
L 440.869375 256.166875 
L 440.869375 256.166875 
L 437.441932 256.166875 
z
" clip-path="url(#p53e4979a36)" style="fill: #ece9e2; stroke: #000000; stroke-width: 0.3; stroke-linejoin: miter"/>
   </g>
   <g id="patch_21">
    <path d="M 440.869375 256.166875 
L 444.296818 256.166875 
L 444.296818 256.046824 
L 440.869375 256.046824 
z
" clip-path="url(#p53e4979a36)" style="fill: #ece9e2; stroke: #000000; stroke-width: 0.3; stroke-linejoin: miter"/>
   </g>
   <g id="patch_22">
    <path d="M 444.296818 256.166875 
L 447.724261 256.166875 
L 447.724261 256.166875 
L 444.296818 256.166875 
z
" clip-path="url(#p53e4979a36)" style="fill: #ece9e2; stroke: #000000; stroke-width: 0.3; stroke-linejoin: miter"/>
   </g>
   <g id="patch_23">
    <path d="M 447.724261 256.166875 
L 451.151705 256.166875 
L 451.151705 256.10685 
L 447.724261 256.10685 
z
" clip-path="url(#p53e4979a36)" style="fill: #ece9e2; stroke: #000000; stroke-width: 0.3; stroke-linejoin: miter"/>
   </g>
   <g id="patch_24">
    <path d="M 451.151705 256.166875 
L 454.579148 256.166875 
L 454.579148 256.166875 
L 451.151705 256.166875 
z
" clip-path="url(#p53e4979a36)" style="fill: #ece9e2; stroke: #000000; stroke-width: 0.3; stroke-linejoin: miter"/>
   </g>
   <g id="patch_25">
    <path d="M 454.579148 256.166875 
L 458.006591 256.166875 
L 458.006591 256.10685 
L 454.579148 256.10685 
z
" clip-path="url(#p53e4979a36)" style="fill: #ece9e2; stroke: #000000; stroke-width: 0.3; stroke-linejoin: miter"/>
   </g>
   <g id="patch_26">
    <path d="M 458.006591 256.166875 
L 461.434034 256.166875 
L 461.434034 256.166875 
L 458.006591 256.166875 
z
" clip-path="url(#p53e4979a36)" style="fill: #ece9e2; stroke: #000000; stroke-width: 0.3; stroke-linejoin: miter"/>
   </g>
   <g id="patch_27">
    <path d="M 461.434034 256.166875 
L 464.861477 256.166875 
L 464.861477 256.166875 
L 461.434034 256.166875 
z
" clip-path="url(#p53e4979a36)" style="fill: #ece9e2; stroke: #000000; stroke-width: 0.3; stroke-linejoin: miter"/>
   </g>
   <g id="patch_28">
    <path d="M 464.861477 256.166875 
L 468.28892 256.166875 
L 468.28892 255.986799 
L 464.861477 255.986799 
z
" clip-path="url(#p53e4979a36)" style="fill: #ece9e2; stroke: #000000; stroke-width: 0.3; stroke-linejoin: miter"/>
   </g>
   <g id="patch_29">
    <path d="M 468.28892 256.166875 
L 471.716364 256.166875 
L 471.716364 256.10685 
L 468.28892 256.10685 
z
" clip-path="url(#p53e4979a36)" style="fill: #ece9e2; stroke: #000000; stroke-width: 0.3; stroke-linejoin: miter"/>
   </g>
   <g id="patch_30">
    <path d="M 471.716364 256.166875 
L 475.143807 256.166875 
L 475.143807 255.806722 
L 471.716364 255.806722 
z
" clip-path="url(#p53e4979a36)" style="fill: #ece9e2; stroke: #000000; stroke-width: 0.3; stroke-linejoin: miter"/>
   </g>
   <g id="patch_31">
    <path d="M 475.143807 256.166875 
L 478.57125 256.166875 
L 478.57125 255.866748 
L 475.143807 255.866748 
z
" clip-path="url(#p53e4979a36)" style="fill: #ece9e2; stroke: #000000; stroke-width: 0.3; stroke-linejoin: miter"/>
   </g>
   <g id="patch_32">
    <path d="M 478.57125 256.166875 
L 481.998693 256.166875 
L 481.998693 255.986799 
L 478.57125 255.986799 
z
" clip-path="url(#p53e4979a36)" style="fill: #ece9e2; stroke: #000000; stroke-width: 0.3; stroke-linejoin: miter"/>
   </g>
   <g id="patch_33">
    <path d="M 481.998693 256.166875 
L 485.426136 256.166875 
L 485.426136 255.56662 
L 481.998693 255.56662 
z
" clip-path="url(#p53e4979a36)" style="fill: #ece9e2; stroke: #000000; stroke-width: 0.3; stroke-linejoin: miter"/>
   </g>
   <g id="patch_34">
    <path d="M 485.426136 256.166875 
L 488.85358 256.166875 
L 488.85358 255.926773 
L 485.426136 255.926773 
z
" clip-path="url(#p53e4979a36)" style="fill: #ece9e2; stroke: #000000; stroke-width: 0.3; stroke-linejoin: miter"/>
   </g>
   <g id="patch_35">
    <path d="M 488.85358 256.166875 
L 492.281023 256.166875 
L 492.281023 255.866748 
L 488.85358 255.866748 
z
" clip-path="url(#p53e4979a36)" style="fill: #ece9e2; stroke: #000000; stroke-width: 0.3; stroke-linejoin: miter"/>
   </g>
   <g id="patch_36">
    <path d="M 492.281023 256.166875 
L 495.708466 256.166875 
L 495.708466 255.266493 
L 492.281023 255.266493 
z
" clip-path="url(#p53e4979a36)" style="fill: #ece9e2; stroke: #000000; stroke-width: 0.3; stroke-linejoin: miter"/>
   </g>
   <g id="patch_37">
    <path d="M 495.708466 256.166875 
L 499.135909 256.166875 
L 499.135909 255.026391 
L 495.708466 255.026391 
z
" clip-path="url(#p53e4979a36)" style="fill: #ece9e2; stroke: #000000; stroke-width: 0.3; stroke-linejoin: miter"/>
   </g>
   <g id="patch_38">
    <path d="M 499.135909 256.166875 
L 502.563352 256.166875 
L 502.563352 255.086417 
L 499.135909 255.086417 
z
" clip-path="url(#p53e4979a36)" style="fill: #ece9e2; stroke: #000000; stroke-width: 0.3; stroke-linejoin: miter"/>
   </g>
   <g id="patch_39">
    <path d="M 502.563352 256.166875 
L 505.990795 256.166875 
L 505.990795 254.666238 
L 502.563352 254.666238 
z
" clip-path="url(#p53e4979a36)" style="fill: #ece9e2; stroke: #000000; stroke-width: 0.3; stroke-linejoin: miter"/>
   </g>
   <g id="patch_40">
    <path d="M 505.990795 256.166875 
L 509.418239 256.166875 
L 509.418239 253.885907 
L 505.990795 253.885907 
z
" clip-path="url(#p53e4979a36)" style="fill: #ece9e2; stroke: #000000; stroke-width: 0.3; stroke-linejoin: miter"/>
   </g>
   <g id="patch_41">
    <path d="M 509.418239 256.166875 
L 512.845682 256.166875 
L 512.845682 253.345678 
L 509.418239 253.345678 
z
" clip-path="url(#p53e4979a36)" style="fill: #ece9e2; stroke: #000000; stroke-width: 0.3; stroke-linejoin: miter"/>
   </g>
   <g id="patch_42">
    <path d="M 512.845682 256.166875 
L 516.273125 256.166875 
L 516.273125 251.424863 
L 512.845682 251.424863 
z
" clip-path="url(#p53e4979a36)" style="fill: #ece9e2; stroke: #000000; stroke-width: 0.3; stroke-linejoin: miter"/>
   </g>
   <g id="patch_43">
    <path d="M 516.273125 256.166875 
L 519.700568 256.166875 
L 519.700568 250.224354 
L 516.273125 250.224354 
z
" clip-path="url(#p53e4979a36)" style="fill: #ece9e2; stroke: #000000; stroke-width: 0.3; stroke-linejoin: miter"/>
   </g>
   <g id="patch_44">
    <path d="M 519.700568 256.166875 
L 523.128011 256.166875 
L 523.128011 250.284379 
L 519.700568 250.284379 
z
" clip-path="url(#p53e4979a36)" style="fill: #ece9e2; stroke: #000000; stroke-width: 0.3; stroke-linejoin: miter"/>
   </g>
   <g id="patch_45">
    <path d="M 523.128011 256.166875 
L 526.555455 256.166875 
L 526.555455 247.043004 
L 523.128011 247.043004 
z
" clip-path="url(#p53e4979a36)" style="fill: #ece9e2; stroke: #000000; stroke-width: 0.3; stroke-linejoin: miter"/>
   </g>
   <g id="patch_46">
    <path d="M 526.555455 256.166875 
L 529.982898 256.166875 
L 529.982898 243.741604 
L 526.555455 243.741604 
z
" clip-path="url(#p53e4979a36)" style="fill: #ece9e2; stroke: #000000; stroke-width: 0.3; stroke-linejoin: miter"/>
   </g>
   <g id="patch_47">
    <path d="M 529.982898 256.166875 
L 533.410341 256.166875 
L 533.410341 241.520662 
L 529.982898 241.520662 
z
" clip-path="url(#p53e4979a36)" style="fill: #ece9e2; stroke: #000000; stroke-width: 0.3; stroke-linejoin: miter"/>
   </g>
   <g id="patch_48">
    <path d="M 533.410341 256.166875 
L 536.837784 256.166875 
L 536.837784 236.538548 
L 533.410341 236.538548 
z
" clip-path="url(#p53e4979a36)" style="fill: #ece9e2; stroke: #000000; stroke-width: 0.3; stroke-linejoin: miter"/>
   </g>
   <g id="patch_49">
    <path d="M 536.837784 256.166875 
L 540.265227 256.166875 
L 540.265227 228.134983 
L 536.837784 228.134983 
z
" clip-path="url(#p53e4979a36)" style="fill: #ece9e2; stroke: #000000; stroke-width: 0.3; stroke-linejoin: miter"/>
   </g>
   <g id="patch_50">
    <path d="M 540.265227 256.166875 
L 543.69267 256.166875 
L 543.69267 218.77101 
L 540.265227 218.77101 
z
" clip-path="url(#p53e4979a36)" style="fill: #ece9e2; stroke: #000000; stroke-width: 0.3; stroke-linejoin: miter"/>
   </g>
   <g id="patch_51">
    <path d="M 543.69267 256.166875 
L 547.120114 256.166875 
L 547.120114 200.823397 
L 543.69267 200.823397 
z
" clip-path="url(#p53e4979a36)" style="fill: #ece9e2; stroke: #000000; stroke-width: 0.3; stroke-linejoin: miter"/>
   </g>
   <g id="patch_52">
    <path d="M 547.120114 256.166875 
L 550.547557 256.166875 
L 550.547557 168.169544 
L 547.120114 168.169544 
z
" clip-path="url(#p53e4979a36)" style="fill: #ece9e2; stroke: #000000; stroke-width: 0.3; stroke-linejoin: miter"/>
   </g>
   <g id="patch_53">
    <path d="M 550.547557 256.166875 
L 553.975 256.166875 
L 553.975 112.645989 
L 550.547557 112.645989 
z
" clip-path="url(#p53e4979a36)" style="fill: #ece9e2; stroke: #000000; stroke-width: 0.3; stroke-linejoin: miter"/>
   </g>
   <g id="patch_54">
    <path d="M 553.975 256.166875 
L 557.402443 256.166875 
L 557.402443 69.547705 
L 553.975 69.547705 
z
" clip-path="url(#p53e4979a36)" style="fill: #ece9e2; stroke: #000000; stroke-width: 0.3; stroke-linejoin: miter"/>
   </g>
   <g id="patch_55">
    <path d="M 557.402443 256.166875 
L 560.829886 256.166875 
L 560.829886 31.671637 
L 557.402443 31.671637 
z
" clip-path="url(#p53e4979a36)" style="fill: #ece9e2; stroke: #000000; stroke-width: 0.3; stroke-linejoin: miter"/>
   </g>
   <g id="patch_56">
    <path d="M 560.829886 256.166875 
L 564.25733 256.166875 
L 564.25733 65.225872 
L 560.829886 65.225872 
z
" clip-path="url(#p53e4979a36)" style="fill: #ece9e2; stroke: #000000; stroke-width: 0.3; stroke-linejoin: miter"/>
   </g>
   <g id="patch_57">
    <path d="M 564.25733 256.166875 
L 567.684773 256.166875 
L 567.684773 103.10194 
L 564.25733 103.10194 
z
" clip-path="url(#p53e4979a36)" style="fill: #ece9e2; stroke: #000000; stroke-width: 0.3; stroke-linejoin: miter"/>
   </g>
   <g id="patch_58">
    <path d="M 567.684773 256.166875 
L 571.112216 256.166875 
L 571.112216 147.70086 
L 567.684773 147.70086 
z
" clip-path="url(#p53e4979a36)" style="fill: #ece9e2; stroke: #000000; stroke-width: 0.3; stroke-linejoin: miter"/>
   </g>
   <g id="patch_59">
    <path d="M 571.112216 256.166875 
L 574.539659 256.166875 
L 574.539659 189.778711 
L 571.112216 189.778711 
z
" clip-path="url(#p53e4979a36)" style="fill: #ece9e2; stroke: #000000; stroke-width: 0.3; stroke-linejoin: miter"/>
   </g>
   <g id="patch_60">
    <path d="M 574.539659 256.166875 
L 577.967102 256.166875 
L 577.967102 216.850196 
L 574.539659 216.850196 
z
" clip-path="url(#p53e4979a36)" style="fill: #ece9e2; stroke: #000000; stroke-width: 0.3; stroke-linejoin: miter"/>
   </g>
   <g id="patch_61">
    <path d="M 577.967102 256.166875 
L 581.394545 256.166875 
L 581.394545 232.696918 
L 577.967102 232.696918 
z
" clip-path="url(#p53e4979a36)" style="fill: #ece9e2; stroke: #000000; stroke-width: 0.3; stroke-linejoin: miter"/>
   </g>
   <g id="patch_62">
    <path d="M 581.394545 256.166875 
L 584.821989 256.166875 
L 584.821989 241.520662 
L 581.394545 241.520662 
z
" clip-path="url(#p53e4979a36)" style="fill: #ece9e2; stroke: #000000; stroke-width: 0.3; stroke-linejoin: miter"/>
   </g>
   <g id="patch_63">
    <path d="M 584.821989 256.166875 
L 588.249432 256.166875 
L 588.249432 244.641986 
L 584.821989 244.641986 
z
" clip-path="url(#p53e4979a36)" style="fill: #ece9e2; stroke: #000000; stroke-width: 0.3; stroke-linejoin: miter"/>
   </g>
   <g id="patch_64">
    <path d="M 588.249432 256.166875 
L 591.676875 256.166875 
L 591.676875 248.363565 
L 588.249432 248.363565 
z
" clip-path="url(#p53e4979a36)" style="fill: #ece9e2; stroke: #000000; stroke-width: 0.3; stroke-linejoin: miter"/>
   </g>
   <g id="patch_65">
    <path d="M 591.676875 256.166875 
L 595.104318 256.166875 
L 595.104318 250.644532 
L 591.676875 250.644532 
z
" clip-path="url(#p53e4979a36)" style="fill: #ece9e2; stroke: #000000; stroke-width: 0.3; stroke-linejoin: miter"/>
   </g>
   <g id="patch_66">
    <path d="M 595.104318 256.166875 
L 598.531761 256.166875 
L 598.531761 251.484889 
L 595.104318 251.484889 
z
" clip-path="url(#p53e4979a36)" style="fill: #ece9e2; stroke: #000000; stroke-width: 0.3; stroke-linejoin: miter"/>
   </g>
   <g id="patch_67">
    <path d="M 598.531761 256.166875 
L 601.959205 256.166875 
L 601.959205 253.165602 
L 598.531761 253.165602 
z
" clip-path="url(#p53e4979a36)" style="fill: #ece9e2; stroke: #000000; stroke-width: 0.3; stroke-linejoin: miter"/>
   </g>
   <g id="patch_68">
    <path d="M 601.959205 256.166875 
L 605.386648 256.166875 
L 605.386648 254.186035 
L 601.959205 254.186035 
z
" clip-path="url(#p53e4979a36)" style="fill: #ece9e2; stroke: #000000; stroke-width: 0.3; stroke-linejoin: miter"/>
   </g>
   <g id="patch_69">
    <path d="M 605.386648 256.166875 
L 608.814091 256.166875 
L 608.814091 254.90634 
L 605.386648 254.90634 
z
" clip-path="url(#p53e4979a36)" style="fill: #ece9e2; stroke: #000000; stroke-width: 0.3; stroke-linejoin: miter"/>
   </g>
   <g id="patch_70">
    <path d="M 608.814091 256.166875 
L 612.241534 256.166875 
L 612.241534 255.146442 
L 608.814091 255.146442 
z
" clip-path="url(#p53e4979a36)" style="fill: #ece9e2; stroke: #000000; stroke-width: 0.3; stroke-linejoin: miter"/>
   </g>
   <g id="patch_71">
    <path d="M 612.241534 256.166875 
L 615.668977 256.166875 
L 615.668977 255.026391 
L 612.241534 255.026391 
z
" clip-path="url(#p53e4979a36)" style="fill: #ece9e2; stroke: #000000; stroke-width: 0.3; stroke-linejoin: miter"/>
   </g>
   <g id="patch_72">
    <path d="M 615.668977 256.166875 
L 619.09642 256.166875 
L 619.09642 255.146442 
L 615.668977 255.146442 
z
" clip-path="url(#p53e4979a36)" style="fill: #ece9e2; stroke: #000000; stroke-width: 0.3; stroke-linejoin: miter"/>
   </g>
   <g id="patch_73">
    <path d="M 619.09642 256.166875 
L 622.523864 256.166875 
L 622.523864 255.56662 
L 619.09642 255.56662 
z
" clip-path="url(#p53e4979a36)" style="fill: #ece9e2; stroke: #000000; stroke-width: 0.3; stroke-linejoin: miter"/>
   </g>
   <g id="patch_74">
    <path d="M 622.523864 256.166875 
L 625.951307 256.166875 
L 625.951307 255.926773 
L 622.523864 255.926773 
z
" clip-path="url(#p53e4979a36)" style="fill: #ece9e2; stroke: #000000; stroke-width: 0.3; stroke-linejoin: miter"/>
   </g>
   <g id="patch_75">
    <path d="M 625.951307 256.166875 
L 629.37875 256.166875 
L 629.37875 256.10685 
L 625.951307 256.10685 
z
" clip-path="url(#p53e4979a36)" style="fill: #ece9e2; stroke: #000000; stroke-width: 0.3; stroke-linejoin: miter"/>
   </g>
   <g id="patch_76">
    <path d="M 629.37875 256.166875 
L 632.806193 256.166875 
L 632.806193 255.986799 
L 629.37875 255.986799 
z
" clip-path="url(#p53e4979a36)" style="fill: #ece9e2; stroke: #000000; stroke-width: 0.3; stroke-linejoin: miter"/>
   </g>
   <g id="patch_77">
    <path d="M 632.806193 256.166875 
L 636.233636 256.166875 
L 636.233636 256.046824 
L 632.806193 256.046824 
z
" clip-path="url(#p53e4979a36)" style="fill: #ece9e2; stroke: #000000; stroke-width: 0.3; stroke-linejoin: miter"/>
   </g>
   <g id="patch_78">
    <path d="M 636.233636 256.166875 
L 639.66108 256.166875 
L 639.66108 256.166875 
L 636.233636 256.166875 
z
" clip-path="url(#p53e4979a36)" style="fill: #ece9e2; stroke: #000000; stroke-width: 0.3; stroke-linejoin: miter"/>
   </g>
   <g id="patch_79">
    <path d="M 639.66108 256.166875 
L 643.088523 256.166875 
L 643.088523 256.166875 
L 639.66108 256.166875 
z
" clip-path="url(#p53e4979a36)" style="fill: #ece9e2; stroke: #000000; stroke-width: 0.3; stroke-linejoin: miter"/>
   </g>
   <g id="patch_80">
    <path d="M 643.088523 256.166875 
L 646.515966 256.166875 
L 646.515966 256.10685 
L 643.088523 256.10685 
z
" clip-path="url(#p53e4979a36)" style="fill: #ece9e2; stroke: #000000; stroke-width: 0.3; stroke-linejoin: miter"/>
   </g>
   <g id="patch_81">
    <path d="M 646.515966 256.166875 
L 649.943409 256.166875 
L 649.943409 256.10685 
L 646.515966 256.10685 
z
" clip-path="url(#p53e4979a36)" style="fill: #ece9e2; stroke: #000000; stroke-width: 0.3; stroke-linejoin: miter"/>
   </g>
   <g id="patch_82">
    <path d="M 649.943409 256.166875 
L 653.370852 256.166875 
L 653.370852 256.10685 
L 649.943409 256.10685 
z
" clip-path="url(#p53e4979a36)" style="fill: #ece9e2; stroke: #000000; stroke-width: 0.3; stroke-linejoin: miter"/>
   </g>
   <g id="patch_83">
    <path d="M 653.370852 256.166875 
L 656.798295 256.166875 
L 656.798295 256.046824 
L 653.370852 256.046824 
z
" clip-path="url(#p53e4979a36)" style="fill: #ece9e2; stroke: #000000; stroke-width: 0.3; stroke-linejoin: miter"/>
   </g>
   <g id="patch_84">
    <path d="M 656.798295 256.166875 
L 660.225739 256.166875 
L 660.225739 256.10685 
L 656.798295 256.10685 
z
" clip-path="url(#p53e4979a36)" style="fill: #ece9e2; stroke: #000000; stroke-width: 0.3; stroke-linejoin: miter"/>
   </g>
   <g id="patch_85">
    <path d="M 660.225739 256.166875 
L 663.653182 256.166875 
L 663.653182 256.166875 
L 660.225739 256.166875 
z
" clip-path="url(#p53e4979a36)" style="fill: #ece9e2; stroke: #000000; stroke-width: 0.3; stroke-linejoin: miter"/>
   </g>
   <g id="patch_86">
    <path d="M 663.653182 256.166875 
L 667.080625 256.166875 
L 667.080625 256.166875 
L 663.653182 256.166875 
z
" clip-path="url(#p53e4979a36)" style="fill: #ece9e2; stroke: #000000; stroke-width: 0.3; stroke-linejoin: miter"/>
   </g>
   <g id="patch_87">
    <path d="M 667.080625 256.166875 
L 670.508068 256.166875 
L 670.508068 256.10685 
L 667.080625 256.10685 
z
" clip-path="url(#p53e4979a36)" style="fill: #ece9e2; stroke: #000000; stroke-width: 0.3; stroke-linejoin: miter"/>
   </g>
   <g id="patch_88">
    <path d="M 670.508068 256.166875 
L 673.935511 256.166875 
L 673.935511 256.166875 
L 670.508068 256.166875 
z
" clip-path="url(#p53e4979a36)" style="fill: #ece9e2; stroke: #000000; stroke-width: 0.3; stroke-linejoin: miter"/>
   </g>
   <g id="patch_89">
    <path d="M 673.935511 256.166875 
L 677.362955 256.166875 
L 677.362955 256.166875 
L 673.935511 256.166875 
z
" clip-path="url(#p53e4979a36)" style="fill: #ece9e2; stroke: #000000; stroke-width: 0.3; stroke-linejoin: miter"/>
   </g>
   <g id="patch_90">
    <path d="M 677.362955 256.166875 
L 680.790398 256.166875 
L 680.790398 256.166875 
L 677.362955 256.166875 
z
" clip-path="url(#p53e4979a36)" style="fill: #ece9e2; stroke: #000000; stroke-width: 0.3; stroke-linejoin: miter"/>
   </g>
   <g id="patch_91">
    <path d="M 680.790398 256.166875 
L 684.217841 256.166875 
L 684.217841 256.166875 
L 680.790398 256.166875 
z
" clip-path="url(#p53e4979a36)" style="fill: #ece9e2; stroke: #000000; stroke-width: 0.3; stroke-linejoin: miter"/>
   </g>
   <g id="patch_92">
    <path d="M 684.217841 256.166875 
L 687.645284 256.166875 
L 687.645284 256.166875 
L 684.217841 256.166875 
z
" clip-path="url(#p53e4979a36)" style="fill: #ece9e2; stroke: #000000; stroke-width: 0.3; stroke-linejoin: miter"/>
   </g>
   <g id="patch_93">
    <path d="M 687.645284 256.166875 
L 691.072727 256.166875 
L 691.072727 256.10685 
L 687.645284 256.10685 
z
" clip-path="url(#p53e4979a36)" style="fill: #ece9e2; stroke: #000000; stroke-width: 0.3; stroke-linejoin: miter"/>
   </g>
   <g id="matplotlib.axis_3">
    <g id="xtick_3">
     <g id="line2d_12">
      <g>
       <use xlink:href="#m6f34febc96" x="427.660843" y="256.166875" style="stroke: #000000; stroke-width: 0.8"/>
      </g>
     </g>
     <g id="text_15">
      <text style="font-size: 10px; font-family: 'Liberation Sans', 'Arimo', 'DejaVu Sans'; text-anchor: middle" x="427.660843" y="270.41375" transform="rotate(-0 427.660843 270.41375)">−10</text>
     </g>
    </g>
    <g id="xtick_4">
     <g id="line2d_13">
      <g>
       <use xlink:href="#m6f34febc96" x="493.546089" y="256.166875" style="stroke: #000000; stroke-width: 0.8"/>
      </g>
     </g>
     <g id="text_16">
      <text style="font-size: 10px; font-family: 'Liberation Sans', 'Arimo', 'DejaVu Sans'; text-anchor: middle" x="493.546089" y="270.41375" transform="rotate(-0 493.546089 270.41375)">−5</text>
     </g>
    </g>
    <g id="xtick_5">
     <g id="line2d_14">
      <g>
       <use xlink:href="#m6f34febc96" x="559.431334" y="256.166875" style="stroke: #000000; stroke-width: 0.8"/>
      </g>
     </g>
     <g id="text_17">
      <text style="font-size: 10px; font-family: 'Liberation Sans', 'Arimo', 'DejaVu Sans'; text-anchor: middle" x="559.431334" y="270.41375" transform="rotate(-0 559.431334 270.41375)">0</text>
     </g>
    </g>
    <g id="xtick_6">
     <g id="line2d_15">
      <g>
       <use xlink:href="#m6f34febc96" x="625.316579" y="256.166875" style="stroke: #000000; stroke-width: 0.8"/>
      </g>
     </g>
     <g id="text_18">
      <text style="font-size: 10px; font-family: 'Liberation Sans', 'Arimo', 'DejaVu Sans'; text-anchor: middle" x="625.316579" y="270.41375" transform="rotate(-0 625.316579 270.41375)">5</text>
     </g>
    </g>
    <g id="xtick_7">
     <g id="line2d_16">
      <g>
       <use xlink:href="#m6f34febc96" x="691.201824" y="256.166875" style="stroke: #000000; stroke-width: 0.8"/>
      </g>
     </g>
     <g id="text_19">
      <text style="font-size: 10px; font-family: 'Liberation Sans', 'Arimo', 'DejaVu Sans'; text-anchor: middle" x="691.201824" y="270.41375" transform="rotate(-0 691.201824 270.41375)">10</text>
     </g>
    </g>
    <g id="text_20">
     <text style="font-size: 10px; font-family: 'Liberation Sans', 'Arimo', 'DejaVu Sans'; text-anchor: middle" x="553.975" y="283.735625" transform="rotate(-0 553.975 283.735625)">Flight x light interaction (log2FC units)</text>
    </g>
   </g>
   <g id="matplotlib.axis_4">
    <g id="ytick_9">
     <g id="line2d_17">
      <g>
       <use xlink:href="#m432768c32a" x="403.1675" y="256.166875" style="stroke: #000000; stroke-width: 0.8"/>
      </g>
     </g>
     <g id="text_21">
      <text style="font-size: 10px; font-family: 'Liberation Sans', 'Arimo', 'DejaVu Sans'; text-anchor: end" x="396.1675" y="259.790312" transform="rotate(-0 396.1675 259.790312)">0</text>
     </g>
    </g>
    <g id="ytick_10">
     <g id="line2d_18">
      <g>
       <use xlink:href="#m432768c32a" x="403.1675" y="226.154143" style="stroke: #000000; stroke-width: 0.8"/>
      </g>
     </g>
     <g id="text_22">
      <text style="font-size: 10px; font-family: 'Liberation Sans', 'Arimo', 'DejaVu Sans'; text-anchor: end" x="396.1675" y="229.77758" transform="rotate(-0 396.1675 229.77758)">500</text>
     </g>
    </g>
    <g id="ytick_11">
     <g id="line2d_19">
      <g>
       <use xlink:href="#m432768c32a" x="403.1675" y="196.14141" style="stroke: #000000; stroke-width: 0.8"/>
      </g>
     </g>
     <g id="text_23">
      <text style="font-size: 10px; font-family: 'Liberation Sans', 'Arimo', 'DejaVu Sans'; text-anchor: end" x="396.1675" y="199.764848" transform="rotate(-0 396.1675 199.764848)">1000</text>
     </g>
    </g>
    <g id="ytick_12">
     <g id="line2d_20">
      <g>
       <use xlink:href="#m432768c32a" x="403.1675" y="166.128678" style="stroke: #000000; stroke-width: 0.8"/>
      </g>
     </g>
     <g id="text_24">
      <text style="font-size: 10px; font-family: 'Liberation Sans', 'Arimo', 'DejaVu Sans'; text-anchor: end" x="396.1675" y="169.752115" transform="rotate(-0 396.1675 169.752115)">1500</text>
     </g>
    </g>
    <g id="ytick_13">
     <g id="line2d_21">
      <g>
       <use xlink:href="#m432768c32a" x="403.1675" y="136.115946" style="stroke: #000000; stroke-width: 0.8"/>
      </g>
     </g>
     <g id="text_25">
      <text style="font-size: 10px; font-family: 'Liberation Sans', 'Arimo', 'DejaVu Sans'; text-anchor: end" x="396.1675" y="139.739383" transform="rotate(-0 396.1675 139.739383)">2000</text>
     </g>
    </g>
    <g id="ytick_14">
     <g id="line2d_22">
      <g>
       <use xlink:href="#m432768c32a" x="403.1675" y="106.103213" style="stroke: #000000; stroke-width: 0.8"/>
      </g>
     </g>
     <g id="text_26">
      <text style="font-size: 10px; font-family: 'Liberation Sans', 'Arimo', 'DejaVu Sans'; text-anchor: end" x="396.1675" y="109.726651" transform="rotate(-0 396.1675 109.726651)">2500</text>
     </g>
    </g>
    <g id="ytick_15">
     <g id="line2d_23">
      <g>
       <use xlink:href="#m432768c32a" x="403.1675" y="76.090481" style="stroke: #000000; stroke-width: 0.8"/>
      </g>
     </g>
     <g id="text_27">
      <text style="font-size: 10px; font-family: 'Liberation Sans', 'Arimo', 'DejaVu Sans'; text-anchor: end" x="396.1675" y="79.713918" transform="rotate(-0 396.1675 79.713918)">3000</text>
     </g>
    </g>
    <g id="ytick_16">
     <g id="line2d_24">
      <g>
       <use xlink:href="#m432768c32a" x="403.1675" y="46.077748" style="stroke: #000000; stroke-width: 0.8"/>
      </g>
     </g>
     <g id="text_28">
      <text style="font-size: 10px; font-family: 'Liberation Sans', 'Arimo', 'DejaVu Sans'; text-anchor: end" x="396.1675" y="49.701186" transform="rotate(-0 396.1675 49.701186)">3500</text>
     </g>
    </g>
    <g id="text_29">
     <text style="font-size: 10px; font-family: 'Liberation Sans', 'Arimo', 'DejaVu Sans'; text-anchor: middle" x="367.84875" y="138.306875" transform="rotate(-90 367.84875 138.306875)">Genes</text>
    </g>
   </g>
   <g id="LineCollection_1">
    <path d="M 542.863162 256.166875 
L 542.863162 67.590875 
" clip-path="url(#p53e4979a36)" style="fill: none; stroke: #75a025; stroke-width: 1.5"/>
    <path d="M 575.999506 256.166875 
L 575.999506 67.590875 
" clip-path="url(#p53e4979a36)" style="fill: none; stroke: #75a025; stroke-width: 1.5"/>
   </g>
   <g id="LineCollection_2">
    <path d="M 543.928541 256.166875 
L 543.928541 67.590875 
" clip-path="url(#p53e4979a36)" style="fill: none; stroke: #0279ee; stroke-width: 1.5"/>
    <path d="M 574.934127 256.166875 
L 574.934127 67.590875 
" clip-path="url(#p53e4979a36)" style="fill: none; stroke: #0279ee; stroke-width: 1.5"/>
   </g>
   <g id="patch_94">
    <path d="M 403.1675 256.166875 
L 403.1675 20.446875 
" style="fill: none; stroke: #000000; stroke-width: 0.8; stroke-linejoin: miter; stroke-linecap: square"/>
   </g>
   <g id="patch_95">
    <path d="M 704.7825 256.166875 
L 704.7825 20.446875 
" style="fill: none; stroke: #000000; stroke-width: 0.8; stroke-linejoin: miter; stroke-linecap: square"/>
   </g>
   <g id="patch_96">
    <path d="M 403.1675 256.166875 
L 704.7825 256.166875 
" style="fill: none; stroke: #000000; stroke-width: 0.8; stroke-linejoin: miter; stroke-linecap: square"/>
   </g>
   <g id="patch_97">
    <path d="M 403.1675 20.446875 
L 704.7825 20.446875 
" style="fill: none; stroke: #000000; stroke-width: 0.8; stroke-linejoin: miter; stroke-linecap: square"/>
   </g>
   <g id="text_30">
    <text style="font-size: 10px; font-family: 'Liberation Sans', 'Arimo', 'DejaVu Sans'; text-anchor: middle" x="553.975" y="14.446875" transform="rotate(-0 553.975 14.446875)">B  Interaction effect, all genes (4 significant)</text>
   </g>
   <g id="legend_2">
    <g id="patch_98">
     <path d="M 514.24375 49.831875 
L 699.1825 49.831875 
Q 700.7825 49.831875 700.7825 48.231875 
L 700.7825 26.046875 
Q 700.7825 24.446875 699.1825 24.446875 
L 514.24375 24.446875 
Q 512.64375 24.446875 512.64375 26.046875 
L 512.64375 48.231875 
Q 512.64375 49.831875 514.24375 49.831875 
z
" style="fill: #ffffff"/>
    </g>
    <g id="line2d_25">
     <path d="M 515.84375 30.644375 
L 523.84375 30.644375 
L 531.84375 30.644375 
" style="fill: none; stroke: #75a025; stroke-width: 1.5; stroke-linecap: square"/>
    </g>
    <g id="text_31">
     <text style="font-size: 8px; font-family: 'Liberation Sans', 'Arimo', 'DejaVu Sans'; text-anchor: start" x="538.24375" y="33.444375" transform="rotate(-0 538.24375 33.444375)">redox module, median |interaction|</text>
    </g>
    <g id="line2d_26">
     <path d="M 515.84375 42.136875 
L 523.84375 42.136875 
L 531.84375 42.136875 
" style="fill: none; stroke: #0279ee; stroke-width: 1.5; stroke-linecap: square"/>
    </g>
    <g id="text_32">
     <text style="font-size: 8px; font-family: 'Liberation Sans', 'Arimo', 'DejaVu Sans'; text-anchor: start" x="538.24375" y="44.936875" transform="rotate(-0 538.24375 44.936875)">Polycomb-down module, median |interaction|</text>
    </g>
   </g>
  </g>
 </g>
 <defs>
  <clipPath id="p3a5b209ea3">
   <rect x="47.2625" y="20.446875" width="301.615" height="235.72"/>
  </clipPath>
  <clipPath id="p53e4979a36">
   <rect x="403.1675" y="20.446875" width="301.615" height="235.72"/>
  </clipPath>
 </defs>
</svg>
